<svg xmlns="http://www.w3.org/2000/svg" xmlns:xlink="http://www.w3.org/1999/xlink" width="39" height="39" viewBox="0 0 39 39">
    <defs>
        <path id="prefix__a" d="M0.004 0.307L38.702 0.307 38.702 39 0.004 39z"/>
    </defs>
    <g fill="none" fill-rule="evenodd">
        <mask id="prefix__b" fill="#fff">
            <use xlink:href="#prefix__a"/>
        </mask>
        <path fill="#BFBFBF" d="M38.706 19.633c0 10.142-7.787 18.474-17.68 19.268-.544.102-1.098.102-1.643.102-1.45 0-2.855-.148-4.194-.444C6.497 36.601.004 28.861.004 19.633.004 8.946 8.696.3 19.383.3 30.07.3 38.706 8.946 38.706 19.633" mask="url(#prefix__b)"/>
        <path fill="#1A1C26" d="M22.114 15.1c.28-.358.85-.612 1.658-.612.754 0 1.658.103 2.517.367L27 10.707C25.535 10.16 24.018 10 22.447 10c-1.57 0-2.798.255-3.798.867-.991.604-1.658 1.283-2.035 2.254-.377.858-.57 2.338-.57 4.167v1.63H13v4.743h3.044v14.886c1.28.312 2.605.453 3.982.453.518 0 1.044 0 1.562-.104V23.661h4.035v-4.742h-4.035V17.39c0-1.169.149-1.885.526-2.29"/>
    </g>
</svg>
