<svg xmlns="http://www.w3.org/2000/svg" width="180" height="29" viewBox="0 0 180 29">
    <g fill="#FFF">
        <path d="M56.922 5.681c-.513.443-1.377.55-5.868 1.34 0 0-.173.018-.887.374-1.043-.006-2.746.785-3.25 1.07-.21.12-.468.716-.55 1.82.298.363.455.337.84.337 2.15 0 5.22-1.09 5.593-1.024 1.397.314 2.045 2.493 2.045 3.615 0 .125-.135.816-.165.895-.174.473-1.015.868-2.031.961-4.836.445-7.096.826-7.656 1.224-.11.078-.276.62-.276.918 0 1.152 2.422 1.45 2.832 1.45 1.5 0 2.252-.808 2.799-.808.657 0 2.005 1.607 2.005 3.414 0 1.186-.686 3.126-3.678 3.126-.778 0-4.068-.585-6.434-2.265 0 0 .071-.485-.918-1.196-.334-.578-.95-2.627-.95-4.193 0-3.477 1.702-5.787 1.933-7.134 0 0-.81-1.152-1.127-1.578-.174-.235-.362-.436-.362-1.305 0-2.71 1.758-3.218 1.844-3.218l.61.01s1.3-.602 1.476-.854l.962-.065C46.278 2.522 52.717.84 54.001.84c1.025 0 1.424.17 1.83.803.27.422 1.365 2.444 1.365 3.167 0 .17-.14.754-.274.87zM59.746 16.66c-.143.14-.3.676-.337.996-.046.406 1.425 1.054 2.758 1.123 3.903.201 3.401-1.618 4.543-1.045.747.375 1.406 2.278 1.406 3.389 0 2.55-2.456 3.27-4.637 3.27-2.99 0-5.666-1.41-5.666-1.41s-2.299-2.895-2.299-4.977c0-4.778 2.513-10.037 2.638-10.286 0 0 .206-1.375.329-2.265.137-1.005.807-1.21 1.37-1.84 1.278-.13 3.548-1.147 10.672-1.927.9-.099 2.02 1.16 2.624 3.068.107.338-.068 1.672-.518 1.812-.268.084-.982.166-6.744.774-.992.104-2.024.273-2.436.571-.46.332-1.341 1.812-1.466 2.308-.13.51.128.782.774.713 3.037-.327 5.085-1.667 5.319-1.667 1.085 0 2.113 1.458 2.417 3.055.178.933-.069 1.708-.363 1.9-.885.58-2.304.947-3.809 1.241-.653.128-1.117.107-1.382.084-.13-.012-.446.21-.63.237-2.197.31-4.176.495-4.563.877zM126.168 3.877c0 1.222-.347 2.023-.774 2.19-1.884.734-8.21 1.65-11.13 2.64-.53.18-1.48 1.8-1.48 2.43 0 .324.366.433.913.359 4.216-.566 4.948-.935 6.708-1.738.295.02.717.056.962.323.505.551 1.021 1.636 1.021 3.215 0 .964-.416 1.982-2.067 2.236-2.184.336-7.205 1.091-8.677 1.272-.739.09-1.166.284-1.233.382-.661.97-.4 3.006 4.105 2 1.89-.421 2.266-1.128 3.336-1.128.07 0 .202.014.278.037.92.792 1.121 1.736 1.121 3.025 0 1.534-.645 2.557-1.978 3.252-.109.057-.607.156-.655.165-.056.01-.662.36-.951.439-.788.215-1.386.258-1.676.258-3.09 0-8.01-1.447-8.01-7.26 0-5.272 3.517-8.956 4.451-12.44 0 0 .24-.245.468-.604.067-.6.6-2.005 1.265-2.077 1.65-.18 6.738-1.306 11.226-2.783.377-.125.71-.082.997.124.783.563 1.78 2.115 1.78 3.683zM39.886 18.557c-.934-1.04-3.951-2.684-4.986-3.731.445-.502 2.866-3.877 2.866-6.544 0-3.768-2.76-8.282-6.473-8.282 0 0-1.082.019-2.395.12-.239.367-1.03.283-1.03.283-1.304.58-2.514 1.551-2.514 4.668 0 .558.789 1.137 1.265 1.571-.087 1.002-.44 2.725-.903 3.895-.167.423-1.37.59-1.37.59l-.635.812c-.412 2.418.008 2.706.852 3.793.112 1.277-.391 3.49-.391 4.746 0 .906.349.807.165 1.739 0 0 .144.154.216.37.32.959 1.426 1.806 2.485 1.806 1.087 0 1.548-.812 1.548-1.195 0-1.073-.28-4.355-.254-4.654.091-1.035.525-1.604.525-1.604.713 0 3.887 2.852 6.597 5.587.409.413 1.224.836 1.944.836 1.65 0 2.327-1.842 2.799-2.266.26-.332.293-1.867-.311-2.54zm-9.464-7.26c-.157.084-.629-.077-.688-.134 0 0 .836-4.846.909-5.89 1.175-.323 2.737.319 2.737 1.86 0 1.33-.62 2.924-2.958 4.164zM105.962 1.998l-1.16-.342-.599-.31c-1.554-.31-5.302-.372-6.554-.24-.212.022-1.035-.184-1.388-.265-.936.552-1.762.807-1.762.807-.211 0-.808-.248-.808-.248-.888.07-3.22.632-4.278 1.272-.491.297-.817.848-.97 1.158-.007.013-.013.027-.018.042-.038.089-.18.237-.203-.002-.024-.228-.058-.474-.104-.649-.293-1.108-1.65-1.967-2.473-1.967-.334 0-1.035.38-1.098.788-.08.513-.135 2.814-.375 5.048-.025.224-.027 4.433-.44 5.832-.095.021-.39.13-.48-.01-1.038-1.592-3.757-4.346-3.987-6.17-.213-1.684.058-4.334-.795-5.019-.315-.253-1.832-.722-2.362-.722-.643 0-1.187.288-1.48.705l-.067.51-.472.725c-.142.471-.225 1.28-.271 3.024l.396 2.073s-.01.478-.362.892l.102 1.598c0 1.8-1.618 7.981-1.618 9.844 0 4.187 3.596 3.844 3.804 3.666.258-.22.771-1.115.796-1.372.243-2.474.492-6.694 1.148-7.934.134-.252.476-.375.652-.206.575.552 1.212 1.796 1.292 1.911.64.924 2.504 3.225 2.855 5.293.03.173-.003.591.053.915.12.704.414 1.522 1.351 2.317.256.216 1.276.345 1.96.226.683-.119 1.928-.255 1.928-3.523 0-2.12-.342-2.97-.316-3.378.027-.408.486-4.285.486-9.673 0 0-.244-.486-.337-.78.127-.464.19-.83.222-1.077.019-.133.087-.231.139-.121.038.077.084.164.135.246.265.43.87.8 1.59.8 1.14 0 2.634-1.358 3.668-1.113.142.034.295-.222 1.107-.293.018.502.027 1.592-.107 3.106-.061.699-.375.853-1.651.853-.466 0-.762.377-.898.68-.168.38-.496 2.207-.496 2.71 0 1.023 1.123 2.34 2.488 2.71.085.429-.323 3.732-.323 5.393 0 1.662.39 2.414.46 2.482.096.091 1.25.954 2.136.954.666 0 1.42-.39 1.55-.661.076-.16.268-.6.287-1.42.085-3.797.505-7.801.972-7.941 2.243-.674 4.416-1.526 6.636-3.17 1.144-.846 2.582-2.607 2.582-4.37-.001-2.305-1.469-4.906-2.543-5.604zm-6.59 7.6c-.28 0-.459-.091-.533-.327-.266-.843-.385-2.627-.385-3.577.978-.207 5.27.063 5.27 1.188 0 1.016-2.887 2.721-4.352 2.716z"/>
        <path d="M23.551 14.989c0-.673-.66-2.93-1.142-3.468-.611-.68-1.329-.843-2.212-.843-.583 0-10.357 1.497-11.583 2.25-.586.362-.806 1.187-.806 2.385 0 1.68 1.115 2.428 1.433 2.428.713 0 5.676-.957 7.46-1.287.366-.067.508.084.505.23 0 .432-.124.937-.317 1.15-.692.768-1.735 1.24-2.635 1.531-1.407-.269-2.593.92-4.006.228-.61-.008-1.487.43-1.907-.247-1.418-.315-2.933-.411-4.068-1.346-.43-.404-.54-.88-.54-1.458 0-1.525 2.29-5.442 6.189-9.085.808-.755 3.713-2.87 4.991-2.87.856 0 1.154 1.894 1.833 2.612.169.178.878.197 1.227.046.749-.324 1.337-.725 1.337-1.599 0-1.956-.772-3.546-1.416-4.332C17.486.817 15.57 0 14.803 0c-1.637 0-2.407.966-3.008.99C9.37 2.468 8.215 3.83 7.722 4.27c-.193.173-.435.237-.435.237s-.15.535-.396.881c-.09.054-.942.614-.942.614C4.83 7.08 0 13.08 0 15.321c0 2.105 1.408 5.043 1.927 5.524 1.768 1.641 5.05 2.794 8.75 2.794 2.593 0 5.006-1.016 5.73-1.411.176-.101.297-.087.277.104-.024.216-.055.515-.069.753-.016.252-.136 1.512-.136 2.365 0 1.492.408 2.259.821 2.654.19.18 1.456.494 2.281.494.41 0 1.706-.607 1.706-1.946 0-.776-.088-1.819-.074-2.07.36-6.661 2.338-8.492 2.338-9.593zM179.877 4.252c-.358-1.587-1.593-3.042-2.635-3.274-.94.21-8.663 1.678-13.739 2.337-.7.09-1.563.123-1.563.123l-.578.293s-1.012.086-1.495.436c-.658.477-1.539 1.404-1.778 2.852l.099 1.317c-1.569 3.09-2.626 5.574-2.626 8.94 0 .067.003.14.008.216.003.248-.025.371-.094.309-.079-.121-.179-.264-.287-.386-.605-.686-.806-.777-1.085-.777-.834 0-1.463 1.552-4.267 1.552-2.524 0-7.26-2.623-7.26-3.991 0-3.01 4.042-6.771 7.05-6.771.526 0 .662.15.662.506 0 .594-.45 1.525-.45 2.116 0 1.437 2.181 2.47 3.327 2.47.33 0 2.682-.859 2.682-4.247 0-1.992-1.464-5.275-3.87-5.275-3.026 0-7.56 1.591-10.597 3.692 0 0-.16.37-.425.617-.265.248-.997.738-.997.738-.723.921-1.3 2.146-1.498 2.59-.058.13-.125.3-.19.475 0 0-.002 0-.002.002-.13.344-.344.46-.392.259-.017-.174-.038-.395-.06-.678-.103-1.28-.212-2.058-.406-3.004 0 0-.34-.909-.428-1.324-.025-.119-.04-.619-.04-.619-.707-2.687-2.368-4.448-2.599-4.532-1.098-.397-1.372-.5-1.85-.198-1.878 1.187-4.08 4.803-7.466 11.006 0 0-.545.61-1.31 1.061.091.951.03 1.452-.057 1.725-.674 2.135-2.625 4.812-2.537 5.362l.107.65-.074.773c0 .495 1.544 2.286 2.834 2.286.106 0 .226-.01.298-.03 1.297-1.14 1.67-3.36 2.826-5.224.128-.207.17-.243.482-.359.744-.276 2.252-.529 2.911-.607.66-.08 1.237.06 1.237.06l.575-.187c.54-.03.831.13.831.561 0 2.102.044 3.817.188 4.457.227 1.01 1.171 1.7 3.04 1.843.205 0 .969-.456 1.203-1.132.37-1.071.142-2.427.142-3.593 0-1.743.055-2.78.102-3.347.042-.191.18-.249.24-.07l.002.003c.18.474.496 1.179.92 1.681 2.33 2.757 6.272 5.98 11.776 6.322 2.193.136 3.81-.97 4.656-3.108.184-.464.313-.873.381-1.103.044-.063.127-.04.19.074l.002.001c.11.198.295.493.584.855 1.893 2.361 4.58 3.097 7.968 2.59 3.775-.566 4.288-.95 4.607-1.36.526-.676.724-1.695.799-2.507.055-.603.131-1.317-.384-1.827-.586-.58-2.396.008-4.784.41-3.164.533-4.496-.792-4.458-1.198.023-.245.146-.74.468-.822.315-.078.966.05 1.257.121.12-.007 1.882-.336 3.203-.336.485 0 1.056.071 1.249.08 0 0 2.08-.153 3.313-.396.757-.15 1.444-.812 1.506-1.222.185-1.206.047-1.931-.18-2.396-.872-1.782-1.904-1.982-2.126-1.936-1.1.232-3.305.875-6.263.722-.36-.018-.584-.437-.55-.717.092-.759 1.036-2.005 1.93-2.175 2.375-.45 9.41-1.147 11.993-1.276 1.618-.08 3.32.41 3.643-.135.38-.634.2-1.94.109-2.344zm-46.514 7.255c-.19.371-1.32.65-3.22.675-.084.001-.177-.166-.132-.272.785-1.856 2.306-5.122 2.51-5.146.211-.027.534.081.67.254.39.499.413 4.019.172 4.49z"/>
    </g>
</svg>
