<svg xmlns="http://www.w3.org/2000/svg" width="62" height="74" viewBox="0 0 62 74">
    <g fill="#FFF">
        <path d="M43.033 20c-.533 0-.966.47-.966 1.048v4.7c0 .637-.479 1.156-1.067 1.156s-1.067-.519-1.067-1.156V23.54c0-.579-.433-1.048-.966-1.048-.534 0-.967.47-.967 1.048v2.207C38 27.54 39.346 29 41 29s3-1.459 3-3.252v-4.7c0-.579-.433-1.048-.967-1.048z"/>
        <path d="M44.313 3.106c-.542-.258-1.192-.03-1.451.51-.26.54-.03 1.188.512 1.446 2.188 1.042 4.222 2.35 6.067 3.884 1.1 4.226.358 5.864-1.694 8.905-.54.8-.967 1.432-1.133 2.115-.228.94.084 1.769.93 2.466 1.862 1.537 2.635.922 3.88 1.95 1.152.95 1.257 6.145 5.948 7.364 1.209.315 2.046.792 2.394 1.36-.044.616-.108 1.231-.19 1.844-1.13 1.834-9.57 6.895-8.84 14.648.07.743.153 1.476.25 2.223-2.94 2.829-3.902 2.745-3.902 3.754v3.067c0 .63-.462 1.177-1.052 1.248-.746.088-1.35-.502-1.35-1.186v-5.723c0-.598-.487-1.083-1.088-1.083-.601 0-1.088.485-1.088 1.083v4.506c-6.53 2.85-9.286 1.43-9.286 3.318v2.831c0 .34-.149.666-.408.894-.8.707-1.995.102-1.995-.954 0-1.364.016-.842-.062-3.039-.012-1.993-1.771-3.56-3.786-3.32-1.693.203-2.969 1.665-2.969 3.4v3.894c0 .599.487 1.084 1.088 1.084.601 0 1.088-.485 1.088-1.084v-3.894c0-.629.462-1.177 1.052-1.247.656-.078 1.321.372 1.351 1.223l.062 1.837v1.146c0 3.005 3.47 4.471 5.616 2.576 1.606-1.42 1.014-3.277 1.139-4.406 2.506-.362 4.948-1.024 7.284-1.977.51 1.508 2.013 2.464 3.611 2.273 1.693-.202 2.97-1.664 2.97-3.4V56.1c19.23-14.02 15.972-43.026-4.948-52.994zm8.624 46.647c-.455-4.579 2.426-7.873 5.851-10.965-1.08 3.89-2.987 7.618-5.85 10.965zm1.466-24.26c-.421-1.103-.82-2.144-1.59-2.78-1.722-1.421-2.48-.794-3.881-1.95-.176-.145-.211-.224-.212-.224-.016-.221.475-.948.833-1.48 1.821-2.697 2.748-4.435 2.512-7.639 4.716 5.035 7.59 11.725 7.767 18.948-.544-.29-3.602-.09-5.43-4.875z"/>
        <path d="M32.454 50.947c-1.293-1.332-4.64-.927-5.206-1.462-.435-.448-3.807-3.211-5.937-2.303-.49.209-1.311.79-1.311 2.343 0 .177.042.351.122.508.104.203 2.593 4.967 6.733 4.967 2.493 0 5.384-.564 6.02-2.146.263-.652.105-1.365-.421-1.907zm-5.599 1.874c-2.422 0-4.215-2.705-4.719-3.555.007-.037.014-.064.02-.082.53-.137 2.663.88 3.596 1.842 1.07 1.101 3.192.878 4.673 1.24-.63.26-1.805.555-3.57.555zM36.825 37.051c-1.44-.318-2.63.9-3.027 2.177-.168.539-.23.74-1.15.74-.792 0-4.783.083-5.523 1.706-.476 1.044.563 1.823.582 1.852 2.09 1.906 5.087 4.282 7.834 3.204C37.857 45.821 40 44.684 40 42.537c0-.812-.865-4.974-3.175-5.486zm-2.22 7.71c-.96.377-2.56-.41-4.764-2.337 2.74-.684 5.272.465 6.23-2.612.031-.103.057-.247.31-.553.502.548 1.257 2.338 1.257 3.278 0 .536-.367 1.177-3.033 2.223zM14 63c-1.654 0-3 1.794-3 4s1.346 4 3 4 3-1.794 3-4-1.346-4-3-4zm0 5.452c-.6 0-1.09-.651-1.09-1.452 0-.8.49-1.452 1.09-1.452.6 0 1.09.651 1.09 1.452 0 .8-.49 1.452-1.09 1.452z"/>
        <path d="M38.218 1.119C13.832-5.64-7.342 19.458 2.443 43.1c1.576 3.81 3.85 7.211 6.756 10.11.519.518.201.817.297 5.482 0 2.949 3.335 4.503 5.458 2.575 1.243-1.13 1.096-2.66 1.107-2.718 0-.09.093-.143.174-.1.697.377 1.437.73 1.553.78.486.208 1.354.808 1.354 1.259v10.09c0 1.735 1.24 3.196 2.885 3.398.937.115 1.873-.188 2.572-.823 1.47-1.336 1.029-3.065 1.108-3.658 0-.598-.473-1.083-1.057-1.083-.585 0-1.058.485-1.058 1.083v1.143c0 .689-.59 1.274-1.313 1.187-.573-.07-1.022-.618-1.022-1.247v-10.09c0-2.02-2.293-3.1-2.633-3.25-.472-.22-.944-.457-1.404-.705-.7-.378-1.523-.354-2.2.064-1.21.75-1.064 2.113-1.074 2.155 0 .688-.59 1.275-1.313 1.187-.573-.07-1.022-.618-1.022-1.247v-4.767c0-.847-.341-1.673-.936-2.266-1.94-1.935-3.569-4.099-4.866-6.433 1.386-1.74 2.372-3.497 3.266-4.739 1.976 4.856 8.24 10.34 10.035 7.57 1.05-1.62-1.523-4.37-1.523-7.265 0-2.106 4.447-1.066 9.248-3.642 2.844-1.526 3.88-4.192 2.84-7.316-.188-.566-.789-.868-1.342-.676-.553.193-.848.808-.66 1.375.707 2.125.111 3.661-1.82 4.697-5.959 3.197-13.36.086-9.141 10.327.115.279.251.61.359.9-2.077-.9-5.369-4.483-6.272-7.441-.301-.989-.918-1.22-1.259-1.27-1.6-.234-2.505 2.211-4.786 5.345-2.788-6.194-3.29-13.124-1.641-19.481 1.353.207 2.405.826 2.804 1.235 2.326 2.382 5.585-2.724 3.911-4.438-.578-.592-1.345-1.559-1.345-3.119 0-.543-.175-1.671-1.496-2.36 1.097-1.654 2.35-3.18 3.772-4.589.035.202.011-.441.019 10.208 0 .959.403 1.875 1.107 2.515.702.638 1.64.938 2.573.823 1.645-.202 2.885-1.663 2.885-3.398v-8.875c0-.628.45-1.176 1.023-1.247.725-.088 1.312.502 1.312 1.187 0 .082.004.073.06.746v1.176c0 2 1.715 3.58 3.68 3.338 1.646-.202 2.886-1.663 2.886-3.398V11.59c0-.487.441-.848.912-.739.844.197 1.447.515 1.743.92 1.383 1.888 4.096 2.374 4.03 2.985-.188 1.748-.199 3.154-4.794 3.154-2.696 0-3.843 1.188-4.33 2.185-.962 1.967-.071 4.683 1.163 6.374.35.479 1.013.577 1.48.218.469-.358.564-1.037.214-1.516-.875-1.199-1.476-3.062-.966-4.105.32-.657 1.142-.99 2.44-.99 2.738 0 4.521-.514 5.61-1.618 1.025-1.038 1.162-2.318 1.273-3.346l.012-.117c.302-2.773-3.208-2.843-4.44-4.524-.61-.833-1.608-1.416-2.966-1.732-.855-.2-1.738.007-2.423.567-1.52 1.242-.952 3.012-1.073 4.108 0 1.055-1.162 1.66-1.94.954-.6-.545-.327-1.232-.395-2.118 0-.082-.004-.075-.06-.75-.031-1.989-1.743-3.524-3.68-3.286-1.645.202-2.886 1.663-2.886 3.398v8.875c0 .629-.449 1.176-1.022 1.247-.338.041-.663-.063-.917-.293-.252-.229-.396-.555-.396-.894-.149-9.946.347-10.342-.472-11.732C19.756 2.595 29.223.87 37.666 3.21c.564.156 1.145-.185 1.297-.763.152-.577-.18-1.172-.745-1.328zM8.176 21.775c-.052.433-.514 1.24-.836 1.466-.712-.689-2.033-1.41-3.602-1.715.562-1.644 1.27-3.23 2.119-4.745.275.11.51.272.51.507 0 1.704.592 3.173 1.81 4.487z"/>
    </g>
</svg>
