<svg xmlns="http://www.w3.org/2000/svg" width="83" height="74" viewBox="0 0 83 74">
    <g fill="#FFF">
        <path d="M51.239 9.997l-1.438-1.438c-.45-.45-1.177-.45-1.626 0-.449.45-.449 1.177 0 1.626l1.438 1.437c.225.225.519.338.813.338.294 0 .588-.113.813-.338.449-.449.449-1.176 0-1.625zM52.603 19.845c.225.225.519.337.813.337.294 0 .588-.112.813-.337.449-.449.449-1.177 0-1.625l-1.438-1.438c-.449-.45-1.177-.45-1.626-.001-.449.449-.449 1.177 0 1.626l1.438 1.438zM39.953 19.024c-.45.449-.45 1.176 0 1.625l1.438 1.439c.225.224.519.336.813.336.294 0 .588-.112.813-.336.449-.45.449-1.178 0-1.626l-1.438-1.438c-.449-.45-1.177-.45-1.626 0zM63.815 31.057c.225.224.519.337.813.337.294 0 .588-.113.813-.337.45-.449.45-1.177 0-1.626l-1.438-1.438c-.449-.449-1.177-.449-1.626 0-.449.45-.449 1.177 0 1.626l1.438 1.438zM37.094 28.74c-.449-.448-1.177-.448-1.626 0-.449.45-.449 1.178 0 1.626l1.438 1.439c.225.224.519.336.813.336.294 0 .588-.112.813-.336.449-.45.449-1.177 0-1.626l-1.438-1.438zM59.387 36.963c-.449.449-.449 1.177 0 1.626l1.438 1.438c.225.225.519.337.813.337.295 0 .589-.112.813-.337.45-.449.45-1.177 0-1.626l-1.438-1.438c-.449-.449-1.177-.449-1.626 0z"/>
        <path d="M81.018 71.59H67.003v-5.543h9.156c.623 0 1.163-.276 1.48-.758.318-.483.36-1.088.115-1.66l-2.728-6.375c-.262-.612-.97-.896-1.581-.634-.612.262-.895.97-.634 1.582l2.326 5.435h-8.134v-4.57c0-.665-.54-1.205-1.205-1.205s-1.204.54-1.204 1.205v4.57h-7.46l9.002-21.041 4.339 10.142c.261.612.97.896 1.581.634.612-.262.895-.97.633-1.582l-2.656-6.208c.161-.15.32-.302.476-.459 2.95-2.986 4.573-6.944 4.573-11.143 0-3.607-1.243-7.138-3.501-9.94-1.97-2.446-4.64-4.26-7.613-5.194.19-.984.284-1.984.284-2.986 0-.665-.54-1.205-1.205-1.205s-1.204.54-1.204 1.205c0 1.19-.158 2.377-.47 3.528-.086.316-.04.653.129.935.168.28.443.481.762.554 2.912.673 5.555 2.333 7.442 4.675 1.941 2.41 2.967 5.325 2.967 8.428 0 3.454-1.299 6.713-3.66 9.217l-1.454-3.4c-.277-.648-.81-1.035-1.423-1.035-.614 0-1.146.387-1.424 1.035l-3.178 7.43c-.695.12-1.404.19-2.123.199-.477.006-.905.293-1.092.731-1.54 3.61-4.881 6.061-8.715 6.49V40.785l5.773-5.776c.47-.47.47-1.234 0-1.705-.47-.47-1.234-.47-1.703 0l-4.07 4.072v-5.973c0-.666-.54-1.205-1.204-1.205-.666 0-1.205.54-1.205 1.205v14.144l-3.892-3.894c-.47-.47-1.233-.47-1.703 0-.47.471-.47 1.234 0 1.705l5.595 5.598v5.69c-1.806-.203-3.504-.854-4.955-1.865l-5.555-12.985c-.277-.648-.81-1.035-1.423-1.035s-1.146.387-1.423 1.035l-1.625 3.8-4.416-7.279h2.044c.653 0 1.212-.308 1.496-.823.284-.515.244-1.152-.104-1.705l-4.717-7.463c.183-.263.374-.523.578-.775 1.886-2.342 4.528-4.002 7.44-4.674.32-.074.595-.274.763-.555.168-.28.214-.619.13-.934-.313-1.153-.471-2.34-.471-3.528 0-7.417 6.03-13.45 13.443-13.45 5.491 0 10.38 3.286 12.454 8.374.25.616.954.912 1.57.66.616-.251.911-.955.66-1.57C60.639 3.874 54.874 0 48.4 0c-8.741 0-15.853 7.115-15.853 15.86 0 1.001.095 2.001.284 2.986-2.972.934-5.642 2.748-7.612 5.193-.028.035-.053.07-.08.105l-3.164-5.006c-.338-.535-.866-.841-1.448-.841-.581 0-1.109.306-1.447.84L9.822 33.79c-.348.553-.387 1.19-.104 1.705.284.515.843.823 1.496.823h2.043L7.21 46.286c-.336.555-.366 1.191-.078 1.702.288.51.846.815 1.494.815H10.9L4.577 59.501c-.329.556-.352 1.19-.062 1.699.289.507.847.81 1.493.81h5.876c.665 0 1.204-.54 1.204-1.205 0-.666-.539-1.205-1.204-1.205H7.316l6.323-10.697c.329-.555.352-1.19.062-1.698s-.848-.811-1.493-.811H9.962l6.048-9.969c.336-.554.366-1.19.079-1.7-.288-.512-.847-.817-1.495-.817h-1.996l7.93-12.55 7.93 12.55h-1.997c-.649 0-1.207.305-1.494.816-.288.511-.258 1.148.078 1.701l6.003 9.895-.03.074h-2.17c-.646 0-1.205.303-1.494.81-.29.508-.266 1.144.062 1.7l1.466 2.48-3.515 8.216h-7.702c-.666 0-1.204.54-1.204 1.205 0 .666.538 1.205 1.204 1.205h1.404v9.58H1.204C.54 71.59 0 72.129 0 72.795 0 73.46.539 74 1.204 74h79.814c.665 0 1.204-.54 1.204-1.205s-.539-1.205-1.204-1.205zM60.21 49.807c.076-.004.151-.01.227-.017l-5.92 13.84c-.245.573-.204 1.177.114 1.66.318.481.857.757 1.48.757h8.483v5.543h-14.99V57.067c4.546-.414 8.562-3.15 10.606-7.26zm-13.015 7.261V71.59H36.13v-5.543h9.157c.623 0 1.162-.276 1.48-.758.318-.483.36-1.088.114-1.66l-3.148-7.359c1.1.416 2.263.69 3.463.798zM35.262 42.596l9.001 21.041H36.13v-4.57c0-.665-.54-1.205-1.204-1.205-.666 0-1.205.54-1.205 1.205v4.57h-7.46l9.002-21.041zM21.478 62.01h2.858l-.693 1.62c-.244.572-.203 1.177.115 1.66.318.48.857.757 1.48.757h8.482v5.543H21.478v-9.58z"/>
    </g>
</svg>
