<svg xmlns="http://www.w3.org/2000/svg" width="103" height="74" viewBox="0 0 103 74">
    <path fill="#FFF" d="M5.058 58.782h7.074c.024 0 .049 0 .072-.002H14.923c3.146 0 4.602 1.377 6.445 3.122 2.152 2.038 4.83 4.573 10.633 4.573h6.737c.066.07.132.138.202.205l-3.015 5.119c-.414.701-.168 1.599.548 2.004.716.405 1.632.165 2.044-.537l3.016-5.12c.653.178 1.34.251 2.05.194 3.29-.26 6.524-.892 9.618-1.866h16.555c.826 0 1.497-.657 1.497-1.467s-.67-1.467-1.497-1.467h-9.538c3.965-2.108 7.35-4.765 10.192-7.825H82.32c2.246 0 4.052 1.81 3.99 4.023-.058 2.096-1.9 3.802-4.103 3.802H76.74c-.827 0-1.497.657-1.497 1.467s.67 1.467 1.497 1.467h5.467c3.81 0 6.994-2.985 7.097-6.655.041-1.488-.397-2.911-1.248-4.104h.48c3.812 0 6.995-2.985 7.098-6.655.041-1.488-.396-2.91-1.248-4.103h.818c3.93 0 7.091-3.17 6.983-7.039-.103-3.67-3.286-6.655-7.097-6.655h-.704c.852-1.193 1.29-2.616 1.248-4.104-.103-3.67-3.286-6.655-7.097-6.655H79.09c-.125-.479-.255-.957-.398-1.435-.232-.777-1.063-1.224-1.857-.995-.794.227-1.249 1.042-1.016 1.82 6.581 22.024-8.415 43.613-32.477 45.521-.069.006-.137.008-.207.009l5.24-8.896 10.852-1.14c.823-.086 1.418-.81 1.33-1.615-.089-.806-.826-1.388-1.649-1.302l-8.681.911 3.982-6.761 15.236-1.6c.822-.087 1.417-.81 1.329-1.616-.088-.806-.825-1.388-1.648-1.303l-13.064 1.373 4.184-7.106L71.1 35.23c.822-.086 1.416-.81 1.328-1.615-.087-.806-.824-1.388-1.647-1.303l-8.682.912 5.59-9.493c.414-.702.169-1.599-.547-2.004-.716-.405-1.632-.165-2.046.538l-5.59 9.493-3.537-7.825c-.334-.74-1.22-1.075-1.975-.747-.756.328-1.098 1.195-.762 1.936l4.421 9.782-4.184 7.105-5.322-11.774c-.335-.74-1.22-1.075-1.976-.748-.755.329-1.097 1.195-.762 1.937l6.207 13.73-3.982 6.762-3.537-7.824c-.335-.74-1.22-1.075-1.975-.748-.756.33-1.097 1.196-.763 1.937l4.422 9.781-5.238 8.895c-.035-.06-.068-.119-.097-.18-11.464-23.678 3.943-49.235 30.225-51.319 1.075-.085 2.184.473 2.755 1.39.43.692 1.351.91 2.058.488.705-.423.928-1.326.497-2.018-1.163-1.867-3.344-2.96-5.552-2.785-2.672.212-5.307.672-7.862 1.357 1.783-2.457 1.587-5.296.348-7.387C61.314.8 57.717-1.045 53.938.654L29.184 11.256c-.035.016-3.488 1.6-6.078 4.138-.023.02-.045.041-.066.063l-3.448 3.413c-1.386 1.372-3.972 1.678-7.429 1.71H5.058C2.268 20.58 0 22.803 0 25.537v28.287c0 2.733 2.269 4.957 5.058 4.957zm83.48-6.001H72.87c1.83-2.422 3.36-5.065 4.537-7.824h11.245c2.246 0 4.052 1.81 3.99 4.023-.059 2.096-1.9 3.8-4.104 3.8zm6.553-18.583c2.204 0 4.045 1.705 4.104 3.801.062 2.21-1.74 4.023-3.99 4.023h-16.69c.837-2.541 1.393-5.162 1.664-7.824H95.09zM79.74 23.438h8.798c2.204 0 4.045 1.706 4.104 3.802.062 2.21-1.74 4.023-3.99 4.023h-8.29c.059-2.57-.143-5.171-.622-7.824zm-76.746 2.1c0-1.116.926-2.024 2.064-2.024h7.029l.058.001c8.08-.069 8.628-1.632 12.993-5.962l.039-.037c2.116-2.095 5.063-3.5 5.258-3.592L55.15 3.338l.028-.012c2.261-1.021 4.254.14 5.149 1.65.9 1.519.941 3.783-1.638 5.588l-.036.027c-10.401 7.765-2.3 1.686-8.613 6.016C35.123 26.842 29.355 45.893 37.054 63.54h-5.052c-4.594 0-6.517-1.821-8.554-3.749-1.954-1.85-4.168-3.946-8.524-3.946h-2.792l-.07.002H5.058c-1.138 0-2.064-.907-2.064-2.022V25.538z"/>
</svg>
