<svg xmlns="http://www.w3.org/2000/svg" width="74" height="74" viewBox="0 0 74 74">
    <g fill="#FFF">
        <path d="M22.34 59.371c.226.635.941.972 1.597.754.647-.216.997-.893.787-1.522l-2.094-6.078c-.22-.637-.93-.98-1.589-.769-.658.213-1.014.901-.794 1.538l2.093 6.077zM27.297 59.371c.226.635.941.972 1.597.754.647-.216.997-.893.787-1.522l-2.094-6.078c-.22-.637-.93-.98-1.589-.769-.658.213-1.014.901-.794 1.538l2.093 6.077zM32.254 59.371c.226.635.941.972 1.597.754.647-.216.997-.893.787-1.522l-2.094-6.078c-.22-.637-.93-.98-1.589-.769-.658.213-1.014.901-.795 1.538l2.094 6.077zM37.211 59.371c.226.635.941.972 1.597.754.647-.216.997-.892.787-1.522L37.5 52.525c-.22-.637-.93-.98-1.589-.769-.658.213-1.014.901-.795 1.538l2.094 6.077zM42.168 59.371c.226.635.94.972 1.597.754.647-.216.996-.892.787-1.522l-2.094-6.078c-.22-.637-.93-.98-1.59-.769-.657.213-1.013.901-.794 1.538l2.094 6.077zM46.771 59.371c.226.635.94.972 1.597.754.647-.216.996-.892.786-1.522l-2.093-6.078c-.22-.637-.931-.98-1.59-.769-.658.213-1.013.901-.794 1.538l2.094 6.077zM45.498 29.742h-2.479c-.684 0-1.24.554-1.24 1.239 0 .684.556 1.24 1.24 1.24h2.479c.684 0 1.239-.556 1.239-1.24 0-.685-.555-1.24-1.24-1.24z"/>
        <path d="M37 0C16.566 0 0 16.566 0 37s16.566 37 37 37 37-16.566 37-37S57.434 0 37 0zm13.441 68.82c-17.56 7.436-37.825-.771-45.261-18.332-5.314-12.55-2.75-27.052 6.546-37.018l4.307 4.307v.723c0 .681.553 1.233 1.234 1.233h.722l.404.404-3.02 4.53H14.8c-.681 0-1.233.552-1.233 1.233v3.7c0 .467.264.894.681 1.103l1.945.973 1.635 7.19c.008.038.02.077.032.116.266.798.76 1.5 1.422 2.021l-3.909 5.864H14.8c-.681 0-1.233.552-1.233 1.233v3.7c0 .388.183.754.493.987l1.336 1.002 2.746 8.236c.418 1.26 1.597 2.11 2.925 2.108h31.866c1.328.002 2.506-.848 2.925-2.108l1.107-3.317 3.565 3.566c-2.952 2.758-6.367 4.974-10.089 6.546zm.126-36.753h4.621l-1.406 6.185c-.266.73-.96 1.215-1.738 1.215h-5.898c-.65-.002-1.251-.343-1.587-.899l-2.273-3.788c-.525-.876-1.662-1.16-2.538-.635-.26.157-.478.375-.634.635l-.972 1.619-9.265-9.266h29.09v1.705l-1.525.762h-5.875c-.681 0-1.234.552-1.234 1.233s.553 1.234 1.234 1.234zm-28.94 9.866h18.562l4.934 4.934H18.338l3.289-4.934zm-1.409-3.681l-1.749-7.692c-.082-.36-.32-.665-.65-.83l-1.786-.892v-1.705h9.356l11.445 11.445c-.337.55-.935.887-1.58.889H21.956c-.778 0-1.472-.485-1.738-1.215zm19.722-.056l.76-1.266 1.522 2.537H41.21l-1.27-1.27zm7.65 11.137l2.686 2.687c-.45.312-.641.883-.468 1.403l2.055 6.167c.215.645.912.995 1.558.78.185-.061.354-.166.49-.306l-.393 1.18c-.084.253-.32.423-.585.422H21.066c-.265 0-.5-.17-.585-.421l-2.867-8.602c-.08-.238-.23-.446-.43-.597l-1.15-.863v-1.85h31.555zm5.182 5.183l2.242 2.242-.76 2.277c-.01-.077-.026-.152-.05-.225l-1.432-4.294zm-1.695-5.183h6.89v1.85l-1.151.864c-.201.15-.351.358-.43.596l-.5 1.499-4.809-4.809zm-2.466-2.466l-4.934-4.934h8.696l3.29 4.934H48.61zm-22.2-22.2l-4.844-4.844.06-.09h30.746l3.29 4.934H26.41zm27.239-7.4H19.01l-.486-.487c.269-2.711 2.685-4.691 5.396-4.423 1.778.176 3.321 1.3 4.035 2.937.196.45.64.74 1.13.74H53.65c.34 0 .616.277.616.618 0 .34-.276.615-.616.615zm-33.478 4.649l2.75 2.75h-4.584l1.834-2.75zM71.533 37c.014 8.734-3.297 17.147-9.26 23.53l-4.437-4.438.768-2.303 1.336-1.002c.31-.233.493-.599.493-.987v-3.7c0-.681-.552-1.233-1.233-1.233h-.573l-3.91-5.864c.662-.52 1.156-1.223 1.422-2.021.013-.039.024-.078.033-.117l1.634-7.19 1.945-.972c.418-.209.682-.636.682-1.103v-3.7c0-.681-.552-1.233-1.233-1.233h-.573l-3.53-5.296c1.503-.798 2.074-2.664 1.276-4.168-.535-1.007-1.582-1.637-2.723-1.636H29.842c-2.043-3.54-6.569-4.753-10.108-2.71-1.507.87-2.66 2.243-3.255 3.878l-3.009-3.009C27.414-1.276 49.257-.514 62.26 13.43c5.966 6.398 9.28 14.822 9.273 23.57z"/>
    </g>
</svg>
