<svg xmlns="http://www.w3.org/2000/svg" width="74" height="74" viewBox="0 0 74 74">
    <g fill="#FFF">
        <path d="M61.42 42.18H64.38V45.14H61.42zM61.42 52.54H64.38V55.5H61.42zM61.42 61.42H64.38V64.38H61.42z"/>
        <path d="M71.613 33.419h-5.35c-.61-2.787-1.919-5.369-3.83-7.517-.869-.975-1.882-1.762-2.967-2.327 2.176-1.51 3.606-4.023 3.606-6.866v-1.193h-5.968c-3.041 0-5.7 1.639-7.161 4.073v-2.88c0-2.633 2.141-4.774 4.774-4.774V9.548c-3.95 0-7.161 3.212-7.161 7.161v6.623c-3.532-1.28-7.503-.322-10.04 2.5-.307.34-.595.695-.87 1.058l.103-.497c.166-.8.251-1.62.251-2.522 0-3.353-1.394-6.382-3.627-8.552l4.184-6.159c.09-.132.171-.272.246-.421.91-1.822.17-4.047-1.653-4.958l-.298-.15c-.882-.44-1.884-.512-2.82-.2-.937.313-1.697.97-2.148 1.87-.064.128-.12.26-.168.393l-2.434 6.694c-.164-.047-.331-.09-.499-.13l.843-8.436c.013-.117.02-.237.02-.355C28.645 1.555 27.088 0 25.177 0h-.226c-1.912 0-3.468 1.555-3.468 3.467 0 .12.006.238.018.346l.844 8.448c-.169.04-.335.082-.5.129l-2.432-6.692c-.049-.135-.105-.267-.178-.413-.441-.883-1.2-1.54-2.137-1.854-.936-.312-1.937-.24-2.82.2l-.299.15c-1.821.912-2.563 3.136-1.65 4.963.073.144.153.283.245.419l4.187 6.162c-2.237 2.182-3.633 5.234-3.633 8.632 0 .816.085 1.636.252 2.434l1.464 7.028H13.13c-1.316 0-2.387 1.07-2.387 2.387v.095c-.392-.056-.788-.095-1.194-.095H3.581v1.193c0 2.843 1.43 5.356 3.605 6.866-1.086.565-2.1 1.352-2.966 2.328C1.5 49.251 0 53.192 0 57.29c0 4.586 1.82 8.862 5.125 12.043C8.27 72.357 12.358 74 16.703 74c.223 0 .445-.005.67-.013 4.247-.164 8.11-1.958 10.983-4.761h34.902c3.29 0 5.968-2.677 5.968-5.968V40.58h2.387c1.316 0 2.387-1.07 2.387-2.387v-2.387c0-1.317-1.07-2.387-2.387-2.387zM57.104 17.903h3.46c-.555 2.72-2.965 4.774-5.847 4.774h-3.46c.554-2.72 2.965-4.774 5.847-4.774zM39.29 27.427c1.945-2.16 5.161-2.873 7.823-1.734.143.061.295.109.444.16v2.548c-1.185-.441-2.311-1.371-2.738-1.796l-1.687 1.69c.28.28 2.817 2.737 5.618 2.737 2.802 0 5.339-2.457 5.618-2.737l-1.686-1.69c-.427.424-1.553 1.353-2.738 1.796v-3.337h4.774c.405 0 .799-.038 1.188-.094 1.672.12 3.44 1.055 4.744 2.518 1.522 1.71 2.592 3.74 3.157 5.93H36.08c.57-2.217 1.66-4.268 3.21-5.99zM32.96 6.508c.018-.045.035-.09.07-.156.156-.313.424-.545.757-.656.334-.111.686-.085.999.071l.298.15c.646.322.908 1.11.587 1.75-.026.054-.058.108-.09.154l-4.083 6.01c-.322-.206-.652-.397-.992-.572l2.455-6.75zm-9.088-3.04c0-.596.485-1.08 1.08-1.08h.226c.595 0 1.08.484 1.074 1.187l-.838 8.378c-.116-.003-.23-.018-.348-.018-.119 0-.233.015-.35.018l-.844-8.486zm-9.32 4.357c-.034-.05-.066-.103-.09-.153-.323-.646-.06-1.433.585-1.756l.298-.149c.312-.155.666-.182 1-.071.331.11.6.343.768.679.023.043.04.087.058.135l2.456 6.751c-.34.176-.671.367-.991.573l-4.084-6.01zm10.514 6.497c5.264 0 9.548 4.284 9.548 9.635 0 .652-.068 1.308-.2 1.947l-1.567 7.515H19.553c.839-.734 1.924-1.194 3.124-1.194v-2.387c-2.255 0-4.268 1.05-5.582 2.686l-1.38-6.62c-.13-.64-.199-1.295-.199-2.033 0-5.265 4.284-9.549 9.549-9.549zM13.129 35.806h2.495c-.066.389-.108.786-.108 1.193v1.326c-.685-.7-1.493-1.274-2.387-1.7v-.82zm-3.58 2.387c2.882 0 5.293 2.054 5.847 4.774h-3.46c-2.883 0-5.294-2.054-5.848-4.774h3.46zM17.28 71.6c-3.96.142-7.667-1.265-10.5-3.99-2.832-2.726-4.393-6.391-4.393-10.322 0-3.512 1.284-6.889 3.615-9.51 1.304-1.465 3.073-2.401 4.746-2.52.389.057.783.095 1.187.095h3.581v3.337c-1.185-.441-2.31-1.371-2.738-1.796l-1.686 1.69c.279.28 2.816 2.737 5.618 2.737 2.8 0 5.338-2.457 5.618-2.737l-1.687-1.69c-.427.424-1.553 1.353-2.738 1.796v-2.247c.572-.092 1.126-.241 1.638-.46 2.66-1.142 5.878-.426 7.821 1.733 2.524 2.806 3.823 6.437 3.656 10.223-.326 7.376-6.362 13.376-13.738 13.661zM33.4 57.289c0-2.508-.536-4.944-1.59-7.16H66.84v7.16H33.4zm29.858 9.549H30.391c1.47-2.094 2.476-4.532 2.856-7.162H66.84v3.581c0 1.974-1.607 3.58-3.58 3.58zm8.355-28.645h-4.774v9.548H30.406c-.392-.56-.806-1.105-1.27-1.62-2.657-2.953-6.893-3.89-10.533-2.332-.219.093-.459.154-.699.214V40.58h46.549v-2.387h-46.55v-1.194c0-.414.07-.809.17-1.193h53.54v2.387z"/>
        <path d="M7.548 56.98H5.18c0 6.529 5.311 11.84 11.84 11.84v-2.368c-5.223 0-9.472-4.25-9.472-9.472zM28.86 18.5H31.82V21.46H28.86zM28.86 24.42H31.82V27.380000000000003H28.86zM28.86 28.86H31.82V31.82H28.86z"/>
    </g>
</svg>
