<svg xmlns="http://www.w3.org/2000/svg" width="38" height="38" viewBox="0 0 38 38">
    <g fill="#858585">
        <path d="M37.367 3.8h-1.9v-.633c0-.35-.284-.634-.634-.634H30.4V1.9c0-1.05-.85-1.9-1.9-1.9-1.05 0-1.9.85-1.9 1.9v.633h-1.267V1.9c0-1.05-.85-1.9-1.9-1.9-1.049 0-1.9.85-1.9 1.9v.633h-7.6V1.9c0-1.05-.85-1.9-1.9-1.9-1.049 0-1.9.85-1.9 1.9v.633H8.867V1.9c0-1.05-.851-1.9-1.9-1.9-1.05 0-1.9.85-1.9 1.9v.633H.633c-.35 0-.633.284-.633.634v31.666c0 .35.284.634.633.634h.634v1.9c0 .35.283.633.633.633h35.467c.35 0 .633-.284.633-.633V4.433c0-.35-.284-.633-.633-.633zm-36.1 30.4V11.4H34.2v22.8H1.267zm26.6-32.3c0-.35.283-.633.633-.633.35 0 .633.283.633.633v.633h-1.266V1.9zm-5.067 0c0-.35.284-.633.633-.633.35 0 .634.283.634.633v.633H22.8V1.9zm-11.4 0c0-.35.284-.633.633-.633.35 0 .634.283.634.633v.633H11.4V1.9zm-5.067 0c0-.35.284-.633.634-.633.35 0 .633.283.633.633v.633H6.333V1.9zM5.067 3.8v.633c0 1.05.85 1.9 1.9 1.9.35 0 .633-.283.633-.633 0-.35-.284-.633-.633-.633-.35 0-.633-.284-.634-.634V3.8h3.8v.633c.002 1.05.851 1.9 1.9 1.9.35 0 .634-.283.634-.633 0-.35-.284-.633-.634-.633-.35 0-.633-.284-.633-.634V3.8h10.133v.633c.002 1.05.851 1.9 1.9 1.9.35 0 .634-.283.634-.633 0-.35-.284-.633-.634-.633-.35 0-.633-.284-.633-.634V3.8h3.8v.633c.001 1.05.851 1.9 1.9 1.9.35 0 .633-.283.633-.633 0-.35-.283-.633-.633-.633-.35 0-.633-.284-.633-.634V3.8H34.2v6.333H1.267V3.8h3.8zm31.666 32.933h-34.2v-1.266h32.3c.35 0 .634-.284.634-.634V5.067h1.266v31.666z"/>
        <path d="M17.705 31.955c-5.009 0-9.069-4.06-9.069-9.069 0-5.008 4.06-9.068 9.069-9.068 5.008 0 9.068 4.06 9.068 9.068-.006 5.006-4.063 9.063-9.068 9.069zm0-16.841c-3.724 0-6.924 2.64-7.632 6.295-.707 3.656 1.277 7.3 4.732 8.689 3.454 1.389 7.408.133 9.429-2.994 2.02-3.128 1.538-7.249-1.148-9.826-1.448-1.388-3.376-2.163-5.381-2.164z"/>
        <path d="M22.67 21.807h-3.886V17.92c0-.357-.29-.647-.648-.647-.357 0-.647.29-.647.647v3.887h-3.887c-.357 0-.647.29-.647.648 0 .357.29.647.647.647h3.887v3.887c0 .357.29.647.647.647.358 0 .648-.29.648-.647v-3.887h3.886c.358 0 .648-.29.648-.647 0-.358-.29-.648-.648-.648z"/>
    </g>
</svg>
