<svg xmlns="http://www.w3.org/2000/svg" width="63" height="74" viewBox="0 0 63 74">
    <g fill="#FFF">
        <path d="M42.935 63.427c-1.49.655-2.666 1.173-5.226 1.173s-3.737-.518-5.226-1.173c-1.696-.746-3.619-1.591-7.344-1.591s-5.648.845-7.344 1.591c-1.489.655-2.666 1.173-5.225 1.173-2.56 0-3.737-.518-5.226-1.173-1.696-.746-3.62-1.591-7.344-1.591v2.303c2.56 0 3.736.518 5.226 1.173 1.696.746 3.618 1.592 7.344 1.592 3.724 0 5.647-.846 7.343-1.592 1.49-.655 2.666-1.173 5.226-1.173s3.736.518 5.226 1.173c1.696.746 3.619 1.592 7.344 1.592s5.648-.846 7.344-1.592c1.49-.655 2.666-1.173 5.226-1.173s3.736.518 5.226 1.173c1.696.746 3.62 1.592 7.344 1.592V64.6c-2.56 0-3.736-.518-5.226-1.173-1.696-.746-3.62-1.591-7.344-1.591-3.725 0-5.648.845-7.344 1.591zM50.28 68.932c-3.726 0-5.649.845-7.345 1.591-1.49.655-2.666 1.173-5.226 1.173s-3.737-.518-5.226-1.173c-1.696-.746-3.619-1.591-7.344-1.591s-5.648.845-7.344 1.591c-1.489.655-2.666 1.173-5.225 1.173-2.56 0-3.737-.518-5.226-1.173-1.696-.746-3.62-1.591-7.344-1.591v2.303c2.56 0 3.736.518 5.226 1.173C6.922 73.154 8.844 74 12.57 74c3.724 0 5.647-.846 7.343-1.592 1.49-.655 2.666-1.173 5.226-1.173s3.736.518 5.226 1.173c1.696.746 3.619 1.592 7.344 1.592s5.648-.846 7.344-1.592c1.49-.655 2.666-1.173 5.226-1.173s3.736.518 5.226 1.173c1.696.746 3.62 1.592 7.344 1.592v-2.304c-2.56 0-3.736-.518-5.226-1.173-1.696-.746-3.62-1.591-7.344-1.591zM57.623 55.318c-1.696-.746-3.62-1.592-7.344-1.592-3.725 0-5.648.846-7.344 1.592-1.49.655-2.666 1.173-5.226 1.173s-3.737-.518-5.226-1.173c-1.696-.746-3.619-1.592-7.344-1.592s-5.648.846-7.344 1.592c-1.489.655-2.666 1.173-5.225 1.173-2.56 0-3.737-.518-5.226-1.173-1.696-.746-3.62-1.592-7.344-1.592v2.304c2.56 0 3.736.517 5.226 1.173 1.696.746 3.618 1.592 7.344 1.592 3.724 0 5.647-.846 7.343-1.592 1.49-.656 2.666-1.173 5.226-1.173s3.736.517 5.226 1.173c1.696.746 3.619 1.592 7.344 1.592s5.648-.846 7.344-1.592c1.49-.656 2.666-1.173 5.226-1.173s3.736.517 5.226 1.173c1.696.746 3.62 1.592 7.344 1.592V56.49c-2.56 0-3.736-.518-5.226-1.173z"/>
        <ellipse cx="18.955" cy="27.37" rx="1" ry="1.014"/>
        <path d="M61.514 1.345C61.27.393 60.318-.185 59.39.055c-1.284.331-3.557 1.198-5.195 3.37-1.638-2.172-3.91-3.039-5.194-3.37-.928-.24-1.881.338-2.124 1.29-.37 1.452-.765 4.303.755 7.087l.021.036c.709 1.169 1.673 2.14 2.867 2.888-.706 3.72-3.117 6.427-7.165 8.044-3.054 1.22-5.962 1.345-6.144 1.351H27.85c-.5 0-.906.417-.906.93 0 .513.406.93.906.93h9.399c.133-.004 3.287-.1 6.714-1.459 4.65-1.842 7.537-5.128 8.347-9.5.135-.73-.19-1.477-.808-1.859-.962-.595-1.735-1.365-2.3-2.289-1.178-2.174-.883-4.44-.586-5.632 1.162.309 3.237 1.135 4.524 3.244.078.143.155.3.233.475.148.33.47.543.823.543.355 0 .676-.213.824-.543.078-.176.154-.331.232-.475 1.287-2.109 3.363-2.935 4.525-3.244.296 1.193.592 3.458-.587 5.632-.669 1.095-1.624 1.968-2.84 2.594-.59.305-.958.919-.958 1.602v9.703c0 7.5-2.86 14.608-8.055 20.012-.65.677-1.327 1.314-2.027 1.913-.912-1.34-2.116-2.652-3.707-3.741l-.035-.023c-5.19-3.21-10.66-1.877-12.279-1.368l-1.65-1.702c-3.517-3.63-8.394-5.71-13.382-5.71H2.04c-.493-1.855-.169-3.793.924-5.396 1.204-1.765 3.098-2.778 5.196-2.778h14.135c.5 0 .906-.416.906-.93 0-.513-.406-.929-.906-.929H8.16c-2.658 0-5.155 1.335-6.68 3.571-1.541 2.261-1.898 5.042-.98 7.63 2.553 7.19 7.63 13.056 14.297 16.517.131.068.27.1.408.1.33 0 .65-.187.809-.51.226-.458.047-1.017-.4-1.249-5.84-3.031-10.378-8.03-12.903-14.168h11.545c4.51 0 8.919 1.882 12.099 5.163l1.942 2.004c.216 1.524 1.146 6.087 4.814 9.506-1.674.334-3.388.507-5.125.508h-.014c-2.484 0-4.946-.34-7.316-1.013-.482-.136-.981.154-1.114.649-.133.495.15 1.007.632 1.143 2.527.717 5.151 1.08 7.798 1.08h.015c2.397-.001 4.753-.307 7.028-.899 2.521 1.489 5.101 1.93 7.262 1.93 1.934 0 3.532-.35 4.452-.61.872-.247 1.414-1.124 1.26-2.04-.186-1.095-.643-3.054-1.724-5.133.817-.688 1.605-1.424 2.36-2.21 2.684-2.793 4.795-6.033 6.272-9.63 1.53-3.723 2.305-7.656 2.305-11.688V11.74c1.505-.785 2.695-1.885 3.535-3.271.007-.012.015-.024.021-.037 1.52-2.783 1.126-5.634.756-7.086zm-25.79 47.714c-4.08-2.802-5.263-7.406-5.577-9.18 1.694-.469 6.24-1.338 10.467 1.267 4.072 2.796 5.256 7.307 5.58 9.18-1.788.497-6.268 1.321-10.47-1.267z"/>
        <path d="M18.493 5.068c-1.436 0-2.714.707-3.529 1.8-.814-1.093-2.093-1.8-3.53-1.8-2.454 0-4.45 2.061-4.45 4.595v2.087c0 .518.406.938.909.938.502 0 .91-.42.91-.938V9.663c0-1.498 1.18-2.717 2.632-2.717 1.356 0 2.475 1.064 2.617 2.425-.006.097-.01 7.937-.01 7.937 0 .518.407.939.91.939l.012-.001h.013c.502 0 .91-.42.91-.938 0 0-.005-7.84-.01-7.937.14-1.361 1.26-2.425 2.616-2.425 1.452 0 2.633 1.219 2.633 2.717v2.087c0 .518.407.938.91.938.502 0 .909-.42.909-.938V9.663c0-2.534-1.997-4.595-4.452-4.595z"/>
    </g>
</svg>
