<svg xmlns="http://www.w3.org/2000/svg" width="46" height="46" viewBox="0 0 46 46">
    <g fill="#FF8100">
        <path d="M44.498 6.5c-.672-.665-1.761-.667-2.432-.003L21.43 26.846l-7.446-7.995c-.643-.69-1.73-.736-2.43-.1-.699.637-.744 1.712-.1 2.404l8.657 9.296c.317.341.761.539 1.229.548l.037.001c.454 0 .892-.179 1.214-.496l21.902-21.6c.673-.662.675-1.74.004-2.404z"/>
        <path d="M44.266 21.266c-.957 0-1.733.776-1.733 1.734 0 10.77-8.762 19.533-19.533 19.533C12.23 42.533 3.467 33.77 3.467 23 3.467 12.23 12.23 3.467 23 3.467c.958 0 1.734-.776 1.734-1.733C24.734.776 23.958 0 23 0 10.318 0 0 10.318 0 23s10.318 23 23 23 23-10.318 23-23c0-.958-.776-1.734-1.734-1.734z"/>
    </g>
</svg>
