<svg xmlns="http://www.w3.org/2000/svg" xmlns:xlink="http://www.w3.org/1999/xlink" width="39" height="39" viewBox="0 0 39 39">
    <defs>
        <path id="prefix__a" d="M0.004 0.257L38.734 0.257 38.734 39 0.004 39z"/>
    </defs>
    <g fill="none" fill-rule="evenodd">
        <mask id="prefix__b" fill="#fff">
            <use xlink:href="#prefix__a"/>
        </mask>
        <path fill="#BFBFBF" d="M38.738 19.636c0 10.686-8.671 19.367-19.367 19.367-10.705 0-19.367-8.68-19.367-19.367C.004 8.92 8.666.25 19.37.25c10.696 0 19.367 8.671 19.367 19.386" mask="url(#prefix__b)"/>
        <path fill="#1A1C26" d="M7 27.796c1.863.119 3.68-.165 5.374-.914.768-.32 1.46-.722 2.163-1.252-.815-.027-1.554-.21-2.238-.548-1.151-.558-1.966-1.471-2.453-2.678-.112-.265-.112-.265.187-.246.824.073 1.433.054 1.892-.128-.44-.147-.862-.229-1.217-.466-1.714-.914-2.631-2.358-2.781-4.277-.019-.228.047-.256.253-.155.599.32 1.264.475 2.022.548-.328-.302-.618-.53-.87-.777-1.424-1.498-1.76-3.884-.815-5.702.13-.247.178-.247.346-.055 2.406 2.705 5.393 4.34 8.997 4.898.365.073.768.082 1.143.137.262.046.28-.064.252-.265-.374-2.11.637-4.203 2.556-5.263 1.957-1.115 4.504-.759 6.067.74.187.155.365.2.571.137.974-.21 1.873-.567 2.725-1.042.075-.018.13-.055.215-.128-.365 1.188-1.095 2.056-2.172 2.778.992-.1 1.891-.384 2.78-.722.02.128-.074.201-.13.302-.6.804-1.302 1.526-2.135 2.13-.16.127-.197.21-.197.41.066 3.683-1.142 6.973-3.557 9.824-2.266 2.604-5.16 4.167-8.614 4.724-3.651.548-7.087-.055-10.252-1.955-.037-.028-.084-.055-.112-.055"/>
    </g>
</svg>
