<svg xmlns="http://www.w3.org/2000/svg" width="36" height="36" viewBox="0 0 36 36">
    <g fill="#FFF" fill-rule="evenodd">
        <path d="M20.524 32.507c-.86.168-1.664.238-2.073.182-3.173 0-5.725-.7-8.108-2.075-.339-.197-.592-.253-.917-.154-1.622.406-3.2.841-4.808 1.248-.339.098-.367.042-.297-.295.423-1.472.832-2.973 1.298-4.501.098-.421.07-.73-.184-1.08C2.178 20.572 2.32 14.08 5.957 9.2 9.751 4.165 14.968 2.06 21.16 3.38c6.106 1.276 10.012 5.23 11.408 11.275 1.974 8.26-3.638 16.492-12.043 17.852m14.99-18.708C33.568 5.666 26.504.112 18 0c-1.128.056-2.34.126-3.44.35C2.63 2.72-3.52 15.834 2.262 26.38c.197.308.197.575.155.897-.832 2.72-1.608 5.526-2.355 8.302-.113.477-.113.477.338.35 2.92-.799 5.796-1.514 8.7-2.243.255-.07.438-.07.65.042 3.736 1.893 7.67 2.412 11.803 1.655 9.857-1.907 16.315-11.892 13.96-21.583"/>
        <path d="M22.614 26.962c-.612.056-1.239-.057-1.837-.255-4.065-1.201-7.141-3.718-9.605-7.153-.92-1.273-1.796-2.644-2.06-4.242-.376-1.866.208-3.534 1.6-4.82.46-.439 1.81-.651 2.367-.354.18.141.278.297.39.48.5 1.287 1.044 2.475 1.559 3.676.07.255.055.524-.084.764-.264.565-.682 1.018-1.086 1.498-.334.283-.334.637-.111.99 1.462 2.46 3.424 4.227 6.055 5.273.39.17.682.1.92-.212.445-.537.904-1.116 1.321-1.682.265-.353.6-.41.989-.24.863.396 1.726.806 2.547 1.201.237.113.404.198.599.269.877.452.877.509.78 1.47-.112 1.88-1.532 2.842-3.16 3.294-.446.1-.794.1-1.184.043"/>
    </g>
</svg>
