<svg height="24" width="38" xmlns="http://www.w3.org/2000/svg"><g fill="none"><path d="m35 0h-32c-1.7 0-3 1.3-3 3v18c0 1.7 1.4 3 3 3h32c1.7 0 3-1.3 3-3v-18c0-1.7-1.4-3-3-3z" fill="#000" opacity=".07"/><path d="m35 1c1.1 0 2 .9 2 2v18c0 1.1-.9 2-2 2h-32c-1.1 0-2-.9-2-2v-18c0-1.1.9-2 2-2z" fill="#006fcf"/><path d="m8.971 10.268.774 1.876h-1.542zm16.075.078h-2.977v.827h2.929v1.239h-2.923v.922h2.977v.739l2.077-2.245-2.077-2.34zm-14.063-2.34h3.995l.887 1.935.822-1.941h10.37l1.078 1.19 1.115-1.19h4.763l-3.519 3.852 3.483 3.828h-4.834l-1.078-1.19-1.125 1.19h-16.91l-.494-1.19h-1.13l-.495 1.19h-3.911l3.286-7.68h3.43zm8.663 1.078h-2.239l-1.5 3.536-1.625-3.536h-2.222v4.81l-2.06-4.81h-1.993l-2.382 5.512h1.555l.494-1.19h2.596l.494 1.19h2.72v-3.935l1.751 3.941h1.19l1.74-3.929v3.93h1.458l.024-5.52zm9.34 2.768 2.531-2.768h-1.822l-1.601 1.726-1.548-1.726h-5.894v5.518h5.81l1.614-1.738 1.548 1.738h1.875l-2.512-2.75z" fill="#fff"/></g></svg>