<svg height="24" width="38" xmlns="http://www.w3.org/2000/svg"><path d="m35 0h-32c-1.7 0-3 1.3-3 3v18c0 1.7 1.4 3 3 3h32c1.7 0 3-1.3 3-3v-18c0-1.7-1.4-3-3-3z" opacity=".07"/><path d="m35 1c1.1 0 2 .9 2 2v18c0 1.1-.9 2-2 2h-32c-1.1 0-2-.9-2-2v-18c0-1.1.9-2 2-2z" fill="#fff"/><path d="m37 16.95v4.05c0 1.1-.9 2-2 2h-11.772c7.896-1.815 12.043-4.601 13.772-6.05z" fill="#eda024"/><path d="m9 11h20v2h-20z" fill="#494949"/><path d="m22 12c0 1.7-1.3 3-3 3s-3-1.4-3-3 1.4-3 3-3c1.7 0 3 1.3 3 3z" fill="#eda024"/></svg>